<svg xmlns="http://www.w3.org/2000/svg" width="100" height="50" stroke="none" stroke-linecap="round" stroke-linejoin="round" fill="#fff" fill-rule="evenodd"><path fill="#e0e0e0" d="M.5.5h100v50H.5z"/><path d="M76.3636 27.053h.2493c2.2826-.0414 4.13-.8946 5.4923-2.5264 2.9994-3.595 2.5008-9.7577 2.4463-10.3458-.1948-4.415-2.158-6.5272-3.7784-7.513-1.2076-.7372-2.6177-1.1348-4.1914-1.168h-.1324c-.8647 0-2.563.15-4.1913 1.1348-1.636.9857-3.6304 3.098-3.825 7.546-.0546.588-.5532 6.75 2.4462 10.3458 1.3555 1.6318 3.202 2.485 5.4845 2.5264zM70.513 14.388c0-.025.0078-.0497.0078-.0663.257-5.94 4.2225-6.577 5.9208-6.577h.0935c2.1034.0497 5.6793.9608 5.9208 6.577 0 .025 0 .0497.0078.0663.0078.058.553 5.6906-1.9243 8.656-.9816 1.1762-2.2904 1.756-4.012 1.7726h-.078c-1.714-.0165-3.0305-.5964-4.0043-1.7726-2.4696-2.9488-1.94-8.6063-1.932-8.656zm21.9848 22.8867v-.025l-.0078-.207c-.0467-1.64-.148-5.4752-3.53-6.7012l-.078-.0248c-3.5135-.9526-6.435-3.1062-6.466-3.13-.4752-.3562-1.1297-.232-1.4646.2734s-.2182 1.2.257 1.5572c.1325.0994 3.233 2.394 7.1128 3.4542 1.8152.6875 2.0177 2.75 2.0723 4.6386l.0078.207c.0078.7455-.04 1.8968-.1636 2.5595-1.262.762-6.21 3.3962-13.7347 3.3962-7.4945 0-12.4727-2.6424-13.7425-3.4045-.1247-.6626-.1792-1.814-.1636-2.5595 0-.0663.0078-.1325.0078-.207.0545-1.8886.257-3.95 2.0722-4.6386 3.8797-1.0603 6.9804-3.363 7.1128-3.4542.4752-.356.592-1.052.257-1.5572s-.9894-.6296-1.4646-.2734c-.0312.025-2.937 2.1785-6.4662 3.13a.947.947 0 0 0-.0779.0249c-3.38 1.2342-3.4823 5.0693-3.53 6.7 0 .0746 0 .14-.0078.207v.025c-.0078.4307-.0156 2.6423.3973 3.7523.078.2154.2182.3976.405.522.2338.1656 5.8352 3.9594 15.2072 3.9594s14.9733-3.802 15.207-3.9594c.18-.1243.3272-.3065.405-.522.3895-1.1017.3817-3.3133.374-3.744z" fill="#a2a2a2" fill-rule="nonzero"/></svg>