<svg xmlns="http://www.w3.org/2000/svg" width="150" height="52" stroke="#000" stroke-linecap="round" stroke-linejoin="round" fill="#fff" fill-rule="evenodd"><path d="M144.835 12.7317c-1.145-1.168-2.47-2.1514-3.857-3.012l-4.1583 4.2412c1.567.7375 2.953 1.6595 4.1583 2.8888s2.1696 2.7045 2.8927 4.364 1.0848 3.442 1.0848 5.286-.3616 3.6265-1.0848 5.286-1.6874 3.1347-2.8927 4.364-2.6517 2.2128-4.2788 2.9503-3.375 1.1064-5.183 1.1064-3.5556-.3688-5.1828-1.1064-3.0735-1.72-4.2787-2.9503c-1.145-1.168-2.1094-2.643-2.8325-4.2412l-6.7497 6.8842v12.662c0 .5532.482 1.045 1.0245 1.045h3.616c.5424 0 1.0245-.4917 1.0245-1.045v-11.187c1.3258 1.3523 2.8927 2.5202 4.6404 3.5036 2.5914 1.4138 5.5444 2.1513 8.7384 2.1513 2.5915 0 5.0624-.4917 7.2922-1.5366 2.3-.9835 4.2787-2.3972 6.0265-4.1183s3.1337-3.8108 4.1583-6.1465S150.5 29.204 150.5 26.438c0-2.7045-.5424-5.2246-1.5066-7.6218-1.0246-2.2742-2.4107-4.364-4.1583-6.085zM10.022 36.15c-1.2053-1.2293-2.1696-2.7045-2.8927-4.364s-1.085-3.442-1.085-5.286.3616-3.6265 1.0848-5.286 1.6874-3.1347 2.8927-4.364 2.6517-2.2128 4.2788-2.9504 3.3748-1.1064 5.1828-1.1064 3.5557.3688 5.1828 1.1064 3.0736 1.72 4.2788 2.9504c.7232.7376 1.326 1.5366 1.8683 2.397l4.1582-4.24c-.6026-.8-1.2052-1.598-1.9284-2.2742-1.6875-1.72-3.7365-3.1348-6.0266-4.1182-2.3503-.9835-4.82-1.5367-7.4728-1.5367-3.0133 0-5.906.7376-8.618 2.1513-1.808.9835-3.435 2.1513-4.76 3.5036V1.545C6.165.9917 5.6828.5 5.1404.5h-3.616C.982.5.5.9917.5 1.545V26.5c0 2.7045.482 5.286 1.5066 7.6217.9643 2.3357 2.3504 4.4256 4.0378 6.1466.723.7376 1.4463 1.3523 2.2298 1.967l4.1583-4.24c-.904-.5532-1.6874-1.168-2.4106-1.844z" fill="#ec008c" fill-rule="nonzero" stroke="none"/><path d="M119.162 31.786c-.7232-1.6595-1.0848-3.442-1.0848-5.286s.3616-3.6265 1.0848-5.286 1.6874-3.1347 2.8927-4.364 2.6516-2.2127 4.2788-2.9503 3.3748-1.1064 5.1828-1.1064 3.5557.3688 5.183 1.1064c.0602 0 .0602.0615.1204.0615L140.978 9.72c-.723-.4302-1.386-.8-2.1695-1.1063-2.3-.9835-4.76-1.5367-7.292-1.5367-2.6517 0-5.1828.4917-7.473 1.5367-2.3.9834-4.34 2.397-6.0264 4.1182s-3.0736 3.8108-4.0378 6.1465c-.4822 1.1064-.7835 2.2743-1.0848 3.442-.24-1.1678-.6026-2.3357-1.0848-3.442l-.6026-1.2907-4.28 4.364.4822 1.6596h-2.1696l-5.6046 5.7163h12.8365v2.1513c0-.0615 0-.0615-.0604-.123-.1807-.246-.482-.4303-.8437-.4303h-3.9774c-.422 0-.7835.246-.9643.676-1.0245 2.5816-2.6517 4.6714-4.8212 6.208s-4.7006 2.3357-7.5332 2.3357c-1.5668 0-3.0735-.246-4.4596-.8l-4.34 4.4256c.422.2458.8437.4302 1.2656.6146a18.916 18.916 0 0 0 7.4729 1.5366c2.05 0 4.098-.3687 6.0265-1.045s3.6762-1.6595 5.243-2.8274 3.0132-2.643 4.1582-4.24 2.05-3.3192 2.712-5.1632v6.1466l6.7497-6.884c.1205-.0615.0603-.0615.0603-.123zM19.4835 45.923c2.6517 0 5.1226-.4917 7.473-1.5366 2.3-.9834 4.34-2.3972 6.0264-4.1182s3.0736-3.81 4.0378-6.1466a16.566 16.566 0 0 0 1.2656-4.7943c.24 1.6596.663 3.32 1.2656 4.7943.904 2.1513 2.1092 4.0568 3.616 5.7163l4.0377-4.1182c-.723-.8-1.386-1.72-1.9285-2.766-.6026-1.1064-1.0244-2.3357-1.3258-3.6265h9.522l5.6047-5.7163H43.9512c.3014-1.2293.7232-2.4586 1.3258-3.565.7835-1.4752 1.7478-2.766 2.953-3.81s2.5914-1.9054 4.098-2.52 3.0735-.922 4.76-.922c1.6272 0 3.2543.3074 4.76.922s2.8927 1.4752 4.098 2.52l.1808.1844 4.0378-4.1182c-1.6272-1.5366-3.4954-2.766-5.6048-3.688-2.3502-.9835-4.82-1.5367-7.4728-1.5367s-5.1828.4917-7.473 1.5367a18.779 18.779 0 0 0-6.0265 4.1182c-1.6875 1.7212-3.0735 3.8108-4.0377 6.1465-.663 1.5367-1.0848 3.1348-1.2656 4.7943-.24-1.6595-.663-3.2576-1.2656-4.7943-.6026-1.4137-1.2656-2.7045-2.1093-3.8723l-4.1583 4.24c.3617.6147.7232 1.2908 1.0245 1.967.7233 1.6596 1.0848 3.442 1.0848 5.286s-.3615 3.6265-1.0848 5.286-1.6874 3.1348-2.8926 4.364-2.6517 2.2128-4.28 2.9503-3.3748 1.1064-5.1828 1.1064-3.5557-.3688-5.1828-1.1064c-.663-.3073-1.3258-.676-1.9285-1.0448l-4.1583 4.24c1.145.8605 2.4106 1.598 3.7365 2.1513 2.4105.922 4.8814 1.475 7.5933 1.475z" fill-rule="nonzero" stroke="none" fill="#00aeef"/><path d="M49.616 44.3866a18.916 18.916 0 0 0 7.4729 1.5366c2.05 0 4.098-.3688 6.0265-1.045s3.676-1.6596 5.243-2.8274 3.0132-2.643 4.1582-4.2412c1.2053-1.6595 2.1094-3.442 2.7722-5.41.1206-.3074.0603-.6762-.1205-.922s-.482-.4302-.8437-.4302H70.347c-.4218 0-.7835.246-.9642.676-1.0245 2.5816-2.6517 4.6714-4.8213 6.208s-4.7006 2.3356-7.533 2.3356c-1.6874 0-3.3145-.3073-4.76-.922-1.5065-.6147-2.8926-1.4752-4.098-2.52-.3617-.3074-.7232-.676-1.0245-.9835L43.1075 39.96c.1205.123.24.3073.4218.4303 1.808 1.598 3.7967 3.0118 6.0868 3.9953zm52.1294-35.773c-2.3503-.9835-4.8212-1.5367-7.473-1.5367s-5.1828.4917-7.4728 1.5367c-2.3.9834-4.34 2.397-6.0265 4.1182s-3.0735 3.8108-4.0378 6.1465c-.4218 1.1064-.7835 2.2128-1.0245 3.3806-.24-1.1678-.6027-2.2742-1.0245-3.3806-.9643-2.3357-2.3504-4.4255-4.0378-6.1465l-.4218-.4303-4.0378 4.1182c1.0848.9834 2.05 2.2127 2.7722 3.6265.6026 1.1064 1.0245 2.3357 1.3258 3.565h-11.15l-5.6047 5.7163h21.6352c.1205 0 .24 0 .3014-.0615.24 1.6596.6628 3.3192 1.3258 4.8558.9642 2.3357 2.3503 4.4255 4.0377 6.1466 1.386 1.4137 2.953 2.5816 4.76 3.5036l4.34-4.4256c-.1206-.0614-.24-.0614-.3616-.123-1.5066-.6147-2.8927-1.4752-4.098-2.52s-2.1695-2.2743-2.953-3.7494c-.6027-1.1064-1.0245-2.3357-1.326-3.6265h18.5617l5.6047-5.7163H81.195c.3014-1.2293.7232-2.4586 1.326-3.565.7834-1.4752 1.7477-2.766 2.953-3.81s2.5915-1.9054 4.098-2.52 3.0735-.922 4.76-.922c1.627 0 3.2542.3074 4.76.922s2.8927 1.4752 4.098 2.52 2.1696 2.3357 2.953 3.7494l.8437 1.9054 4.2788-4.364a18.512 18.512 0 0 0-3.435-4.8558c-1.7478-1.6596-3.7968-3.0733-6.087-4.0567z" fill-rule="nonzero" stroke="none" fill="#ffc60b"/></svg>